<svg width="91" height="101" viewBox="0 0 91 101" fill="none" xmlns="http://www.w3.org/2000/svg">
<g clip-path="url(#clip0)">
<path d="M33.388 15.201C33.0446 15.2032 32.7071 15.291 32.406 15.4563C31.4174 16.0042 31.0548 17.2743 31.6026 18.2622L33.8345 22.2925C28.457 25.6195 24.8938 31.3026 24.8938 37.7889V38.9941C23.8609 37.8058 22.3429 37.0556 20.6467 37.0556C17.5389 37.0556 15.0156 39.5788 15.0156 42.6864V60.0323C15.0156 63.1396 17.5391 65.6631 20.6467 65.6631C22.3429 65.6631 23.8609 64.9127 24.8936 63.7244V66.1542C24.8936 69.43 27.5741 72.1103 30.85 72.1103H32.3612V79.8267C32.3612 82.9345 34.8848 85.4577 37.9923 85.4577C41.0999 85.4577 43.6232 82.9342 43.6232 79.8267V72.1103H46.2379V79.8267C46.2379 82.9345 48.7614 85.4577 51.869 85.4577C54.9766 85.4577 57.4998 82.9342 57.4998 79.8267V72.1103H59.0113C62.287 72.1103 64.9675 69.43 64.9675 66.1542V63.7244C66.0002 64.9127 67.5184 65.6631 69.2146 65.6631C72.3222 65.6631 74.8455 63.1396 74.8455 60.0323V42.6864C74.8455 39.5788 72.3222 37.0556 69.2146 37.0556C67.5184 37.0556 66.0002 37.8058 64.9675 38.9941V37.9928V37.9354C64.968 37.8745 64.9675 37.8257 64.9675 37.7889C64.9675 31.3038 61.3961 25.6263 56.0205 22.2991L58.2588 18.2622C58.8062 17.2743 58.4439 16.0042 57.4553 15.4563C57.1542 15.291 56.8167 15.2032 56.4733 15.201C55.7432 15.194 55.0267 15.5788 54.6494 16.2597L52.3089 20.4878C50.0205 19.6434 47.5305 19.1805 44.9308 19.1805C42.3334 19.1805 39.8387 19.6384 37.5522 20.4813L35.212 16.2597C34.8344 15.5788 34.1181 15.1945 33.388 15.201Z" fill="white"/>
<path d="M20.6485 38.5225C18.3296 38.5225 16.4844 40.3677 16.4844 42.6866V60.0325C16.4844 62.3514 18.3296 64.1966 20.6485 64.1966C22.9674 64.1966 24.8129 62.3514 24.8129 60.0325V42.6866C24.8129 40.3677 22.9674 38.5225 20.6485 38.5225ZM69.2166 38.5225C66.8975 38.5225 65.0523 40.3677 65.0523 42.6866V60.0325C65.0523 62.3514 66.8975 64.1966 69.2166 64.1966C71.5355 64.1966 73.3808 62.3514 73.3808 60.0325V42.6866C73.3808 40.3677 71.5355 38.5225 69.2166 38.5225Z" fill="#A4C639"/>
<path d="M37.9925 58.3167C35.6736 58.3167 33.8281 60.1619 33.8281 62.481V79.8267C33.8281 82.1456 35.6736 83.9908 37.9925 83.9908C40.3114 83.9908 42.1566 82.1456 42.1566 79.8267V62.481C42.1566 60.1619 40.3114 58.3167 37.9925 58.3167ZM51.8691 58.3167C49.55 58.3167 47.7048 60.1619 47.7048 62.481V79.8267C47.7048 82.1456 49.55 83.9908 51.8691 83.9908C54.188 83.9908 56.0333 82.1456 56.0333 79.8267V62.481C56.0333 60.1619 54.188 58.3167 51.8691 58.3167Z" fill="#A4C639"/>
<path d="M33.3995 16.6681C33.301 16.6692 33.2045 16.6955 33.119 16.7445C32.822 16.909 32.7245 17.2502 32.8893 17.5479L35.823 22.8473C30.1792 25.7841 26.3669 31.3648 26.3594 37.7698H63.4996C63.4919 31.3648 59.6798 25.7838 54.036 22.8473L56.9695 17.5481C57.1345 17.2505 57.0367 16.909 56.7398 16.7445C56.6543 16.6955 56.5577 16.6692 56.4592 16.6681C56.2483 16.6657 56.0488 16.7712 55.9363 16.9741L52.9645 22.3308C50.5335 21.2527 47.8068 20.6473 44.9294 20.6473C42.052 20.6473 39.3255 21.2524 36.8943 22.3308L33.9224 16.9741C33.8717 16.8801 33.7962 16.8018 33.704 16.7478C33.6118 16.6939 33.5066 16.6663 33.3998 16.6681H33.3995ZM26.3594 39.2365V66.1544C26.3581 66.7444 26.4734 67.3287 26.6985 67.8739C26.9237 68.4192 27.2544 68.9146 27.6715 69.3317C28.0886 69.7488 28.5841 70.0794 29.1293 70.3046C29.6746 70.5297 30.2589 70.645 30.8488 70.6437H59.0102C59.6001 70.645 60.1845 70.5297 60.7297 70.3046C61.275 70.0794 61.7704 69.7488 62.1876 69.3316C62.6047 68.9145 62.9354 68.4191 63.1605 67.8738C63.3857 67.3285 63.5009 66.7441 63.4996 66.1542V39.2367H26.3594V39.2365Z" fill="#A4C639"/>
<path d="M36.3583 27.8726C35.5105 27.8726 34.8086 28.5743 34.8086 29.422C34.8086 30.27 35.5105 30.9717 36.3583 30.9717C37.2062 30.9717 37.908 30.27 37.908 29.422C37.908 28.5743 37.2062 27.8726 36.3583 27.8726ZM53.5 27.8726C52.652 27.8726 51.9503 28.5743 51.9503 29.422C51.9503 30.27 52.652 30.9717 53.5 30.9717C54.3477 30.9717 55.0497 30.27 55.0497 29.422C55.0497 28.5743 54.3477 27.8726 53.5 27.8726Z" fill="white"/>
</g>
<defs>
<clipPath id="clip0">
<rect width="60" height="70.5469" fill="white" transform="translate(15.0156 15)"/>
</clipPath>
</defs>
</svg>
