<svg width="103" height="91" viewBox="0 0 103 91" fill="none" xmlns="http://www.w3.org/2000/svg">
<g clip-path="url(#clip0)">
<path d="M51.1549 15.2734C31.8197 15.2734 16.6715 39.8734 15.2383 60.6509C21.3059 71.1813 35.9377 75.1396 51.1555 75.1396C66.3721 75.1396 81.0048 71.1813 87.0693 60.6506C85.6357 39.8734 70.4895 15.2734 51.1552 15.2734" fill="#B6DEFF"/>
<path d="M82.0178 55.7017C82.0178 55.7017 77.7474 46.469 73.4068 41.0825C69.0632 35.6938 63.7587 29.8262 60.6223 29.8262C57.4877 29.8262 48.7249 45.3411 44.7049 45.3411C40.684 45.3411 38.5944 38.3079 33.6511 38.3079C28.7057 38.3079 20.8488 55.2681 20.8488 55.2681L20.3164 58.1434C20.3164 58.1434 23.046 70.245 51.602 70.245C80.1592 70.245 82.4415 58.3419 82.4415 58.3419L82.0181 55.7014" fill="#66CC66"/>
<path d="M45.1521 51.9623C40.7172 51.9623 38.4437 47.5865 37.211 44.8854C36.1025 42.4521 35.9107 38.6104 32.7656 38.5028C33.0746 38.3803 33.3721 38.3079 33.651 38.3079C38.5944 38.3079 40.6839 45.3411 44.7048 45.3411C48.7248 45.3411 57.4876 29.8259 60.6222 29.8259C61.2129 29.8259 61.8783 30.0344 62.6003 30.4051C62.0662 30.3347 61.3814 30.3837 60.8538 30.913C59.8405 31.9265 50.6425 51.9623 45.1521 51.9623Z" fill="#17AD49"/>
</g>
<defs>
<clipPath id="clip0">
<rect width="72.1127" height="60" fill="white" transform="translate(15.0156 15.2734)"/>
</clipPath>
</defs>
</svg>
