<svg width="91" height="92" viewBox="0 0 91 92" fill="none" xmlns="http://www.w3.org/2000/svg">
<g clip-path="url(#clip0)">
<path opacity="0.5" d="M44.9453 24.5626V41.8079L59.9094 33.1674V15.9219L44.9453 24.5626Z" fill="#13A049"/>
<path opacity="0.5" d="M44.9444 24.5626L29.9805 15.9219V33.2033L44.9444 41.844V24.5626Z" fill="#A2CC39"/>
<path opacity="0.9" d="M59.9078 15.9219L44.9437 24.5626L29.9798 15.9219L15.0156 24.5626L44.9437 41.844L74.8539 24.5626L59.9078 15.9219Z" fill="url(#paint0_linear)"/>
<path d="M44.9437 41.8439L15.0156 24.5625V41.8439L29.9798 50.4846V67.7482L44.9437 76.3889L59.9078 67.7482V50.4846L74.8539 41.8439V24.5625L44.9437 41.8439Z" fill="url(#paint1_linear)"/>
<path d="M44.9453 41.8439V76.3889L59.9094 67.7482V50.4846L74.8555 41.8439V24.5625L44.9453 41.8439Z" fill="url(#paint2_linear)"/>
<path opacity="0.05" d="M44.9453 59.1077V76.3891L59.9094 67.7484L44.9453 59.1077Z" fill="#231F20"/>
<path opacity="0.1" d="M44.9444 76.4247V59.1433L29.9805 67.784L44.9444 76.4247Z" fill="#231F20"/>
<path opacity="0.05" d="M29.9798 33.2034L15.0156 41.8441L29.9798 50.4848L44.9437 41.8441L29.9798 33.2034Z" fill="#231F20"/>
<path opacity="0.05" d="M59.9094 33.2034L44.9453 41.8441L59.9094 50.4848L74.8555 41.8441L59.9094 33.2034Z" fill="#231F20"/>
</g>
<defs>
<linearGradient id="paint0_linear" x1="74.8611" y1="28.8806" x2="15.0156" y2="28.8806" gradientUnits="userSpaceOnUse">
<stop stop-color="#37BDA6"/>
<stop offset="1" stop-color="#8AD3B8"/>
</linearGradient>
<linearGradient id="paint1_linear" x1="74.8611" y1="50.4747" x2="15.0156" y2="50.4747" gradientUnits="userSpaceOnUse">
<stop offset="0.5" stop-color="#4BB6AD"/>
<stop offset="1" stop-color="#78BBC1"/>
</linearGradient>
<linearGradient id="paint2_linear" x1="44.9399" y1="50.4747" x2="74.8624" y2="50.4747" gradientUnits="userSpaceOnUse">
<stop stop-color="#4379A7"/>
<stop offset="1" stop-color="#7CC9B8"/>
</linearGradient>
<clipPath id="clip0">
<rect width="60" height="60.7031" fill="white" transform="translate(15.0156 15.9219)"/>
</clipPath>
</defs>
</svg>
