<svg width="91" height="96" viewBox="0 0 91 96" fill="none" xmlns="http://www.w3.org/2000/svg">
<g clip-path="url(#clip0)">
<path d="M70.9196 68.2241C70.4672 71.586 68.2048 74.4951 65.0375 75.7879C63.4859 76.4336 61.8054 76.6281 60.1245 76.4336C58.5087 76.24 56.8925 75.7227 55.212 74.7541C52.8846 73.4598 50.5575 71.4569 47.8428 68.4831C52.1093 63.2472 54.6943 58.4636 55.6643 54.198C56.1169 52.1938 56.1814 50.3837 55.9878 48.7028C55.7295 47.087 55.1475 45.5997 54.2421 44.3071C52.2382 41.3985 48.8773 39.7176 45.128 39.7176C41.3787 39.7176 38.0175 41.4632 36.0136 44.3071C35.1082 45.5999 34.5272 47.087 34.2682 48.7028C34.01 50.3837 34.0744 52.2583 34.5917 54.1982C35.5611 58.4634 38.2111 63.3119 42.4132 68.5469C39.7629 71.5213 37.3711 73.525 35.0438 74.818C33.3633 75.7879 31.7471 76.3052 30.1313 76.4983C28.4656 76.6843 26.7796 76.4627 25.2186 75.8526C22.051 74.5598 19.789 71.6498 19.3362 68.2886C19.1426 66.673 19.2718 65.0573 19.9182 63.2472C20.1118 62.6003 20.4354 61.9551 20.7582 61.1788C21.211 60.145 21.7282 59.0453 22.2448 57.9461L22.31 57.8177C26.7696 48.1855 31.5535 38.3603 36.5309 28.7938L36.7247 28.4052C37.242 27.4366 37.7586 26.4027 38.2763 25.4327C38.7931 24.3981 39.3748 23.4283 40.0857 22.5873C41.4432 21.0358 43.2532 20.1955 45.2571 20.1955C47.261 20.1955 49.0709 21.0358 50.4284 22.5876C51.1395 23.4283 51.7212 24.3981 52.2385 25.4329C52.7557 26.4027 53.2723 27.4366 53.7896 28.4052L53.9841 28.7938C58.8964 38.4248 63.6802 48.25 68.1403 57.8821V57.9461C68.6576 58.9806 69.1097 60.145 69.627 61.1788C69.9504 61.9551 70.2734 62.6001 70.467 63.2472C70.9842 64.9277 71.1781 66.5444 70.9198 68.2241H70.9196ZM45.128 65.1857C41.6377 60.7907 39.3748 56.6533 38.5993 53.1637C38.2765 51.6766 38.2111 50.3837 38.4057 49.2201C38.5346 48.1855 38.9229 47.2802 39.4393 46.5039C40.6676 44.7602 42.736 43.6593 45.128 43.6593C47.5198 43.6593 49.6528 44.6945 50.8163 46.5039C51.3331 47.2802 51.7212 48.1855 51.8503 49.2201C52.0442 50.3837 51.9795 51.741 51.6565 53.1637C50.881 56.5893 48.6183 60.7262 45.128 65.1857ZM74.281 61.8248C73.958 61.049 73.6346 60.209 73.3116 59.4979C72.7943 58.3349 72.2771 57.2352 71.8245 56.2007L71.7598 56.1367C67.3001 46.4399 62.5163 36.6147 57.4742 26.92L57.2806 26.5309C56.7633 25.5613 56.246 24.5268 55.7295 23.4927C55.0826 22.3286 54.436 21.1016 53.4021 19.9373C51.3328 17.3516 48.36 15.9297 45.1922 15.9297C41.9602 15.9297 39.0516 17.3516 36.9181 19.8086C35.9489 20.9718 35.2378 22.1999 34.5914 23.3643C34.0742 24.3981 33.5569 25.4327 33.0399 26.4027L32.8461 26.7895C27.8691 36.4855 23.0208 46.3115 18.5604 56.0076L18.496 56.1367C18.0432 57.1705 17.5259 58.2691 17.0086 59.4334C16.6628 60.1995 16.3396 60.9757 16.0395 61.7608C15.1988 64.1519 14.9405 66.4148 15.2635 68.7414C15.975 73.5897 19.2071 77.6627 23.6672 79.472C25.3475 80.1836 27.0928 80.5066 28.9032 80.5066C29.4202 80.5066 30.0666 80.4419 30.5839 80.3767C32.7167 80.1177 34.9144 79.408 37.0472 78.1792C39.698 76.6926 42.2192 74.5598 45.0631 71.4569C47.907 74.5598 50.4928 76.6928 53.0785 78.1792C55.212 79.408 57.4095 80.1177 59.5425 80.3767C60.0598 80.4419 60.7062 80.5066 61.2232 80.5066C63.0333 80.5066 64.8429 80.1836 66.4592 79.472C70.984 77.6627 74.1514 73.5252 74.8625 68.7414C75.3797 66.4785 75.1207 64.2173 74.2807 61.8245L74.281 61.8248Z" fill="#E0565B"/>
</g>
<defs>
<clipPath id="clip0">
<rect width="60" height="64.6875" fill="white" transform="translate(15.1289 15.9297)"/>
</clipPath>
</defs>
</svg>
