<svg width="91" height="91" viewBox="0 0 91 91" fill="none" xmlns="http://www.w3.org/2000/svg">
<g clip-path="url(#clip0)">
<path d="M28.1556 15.2734H61.8756C69.1328 15.2734 75.0156 21.1562 75.0156 28.4134V62.1334C75.0156 69.3906 69.1328 75.2734 61.8756 75.2734H28.1556C20.8984 75.2734 15.0156 69.3906 15.0156 62.1334V28.4134C15.0156 21.1562 20.8984 15.2734 28.1556 15.2734Z" fill="url(#paint0_linear)"/>
<path d="M34.6844 58.8791L34.69 58.8809L32.6385 62.4341C31.8897 63.7311 30.2313 64.1755 28.9342 63.4266C27.6374 62.6778 27.1928 61.0194 27.9416 59.7223L29.4529 57.1048L29.598 56.8536C29.857 56.4814 30.4961 55.8387 31.7746 55.9597C31.7746 55.9597 34.7833 56.2862 35.001 57.8499C35.001 57.8499 35.0306 58.3644 34.6844 58.8791ZM63.7804 49.8041H57.3834C56.9477 49.7748 56.7576 49.6191 56.6826 49.5287L56.6779 49.5205L49.8302 37.6597L49.8213 37.6655L49.4106 37.0768C48.7375 36.0474 47.6688 38.6799 47.6688 38.6799C46.3926 41.6134 47.8499 44.9483 48.3578 45.9563L57.8692 62.4305C58.6178 63.7273 60.2763 64.172 61.5735 63.4229C62.8703 62.6741 63.3149 61.0156 62.5659 59.7186L60.1877 55.5992C60.1415 55.4994 60.0613 55.2284 60.5491 55.2273H63.7804C65.2781 55.2273 66.4921 54.0132 66.4921 52.5155C66.4921 51.0179 65.2781 49.8038 63.7804 49.8038V49.8041ZM51.3552 53.4903C51.3552 53.4903 51.6967 55.2273 50.3756 55.2273H26.7273C25.2297 55.2273 24.0156 54.0132 24.0156 52.5155C24.0156 51.0179 25.2297 49.8038 26.7273 49.8038H32.807C33.7886 49.7471 34.0211 49.1804 34.0211 49.1804L34.0267 49.1832L41.9627 35.4376L41.9603 35.4371C42.1049 35.1716 41.9845 34.9205 41.9636 34.8809L39.3426 30.3413C38.5938 29.0445 39.0381 27.3859 40.3352 26.6373C41.6322 25.8884 43.2906 26.3326 44.0395 27.6296L45.2549 29.735L46.4683 27.6334C47.2171 26.3366 48.8756 25.8919 50.1726 26.641C51.4696 27.3898 51.914 29.048 51.1652 30.3451L40.1219 49.4724C40.0736 49.5889 40.0588 49.7717 40.4181 49.8038H47.0191L47.0205 49.8683C47.0205 49.8683 50.8356 49.9276 51.3552 53.4903Z" fill="white"/>
</g>
<defs>
<linearGradient id="paint0_linear" x1="45.0156" y1="15.2734" x2="45.0156" y2="75.2734" gradientUnits="userSpaceOnUse">
<stop stop-color="#17C9FB"/>
<stop offset="1" stop-color="#1A74E8"/>
</linearGradient>
<clipPath id="clip0">
<rect width="60" height="60" fill="white" transform="translate(15.0156 15.2734)"/>
</clipPath>
</defs>
</svg>
