<svg width="91" height="91" viewBox="0 0 91 91" fill="none" xmlns="http://www.w3.org/2000/svg">
<g clip-path="url(#clip0)">
<path d="M28.2689 15.2734H61.9889C69.2461 15.2734 75.1289 21.1562 75.1289 28.4134V62.1334C75.1289 69.3906 69.2461 75.2734 61.9889 75.2734H28.2689C21.0117 75.2734 15.1289 69.3906 15.1289 62.1334V28.4134C15.1289 21.1562 21.0117 15.2734 28.2689 15.2734Z" fill="url(#paint0_linear)"/>
<path d="M34.7977 58.8791L34.8033 58.8809L32.7518 62.4341C32.003 63.7311 30.3445 64.1755 29.0475 63.4266C27.7507 62.6778 27.3061 61.0194 28.0549 59.7223L29.5662 57.1048L29.7113 56.8536C29.9702 56.4814 30.6094 55.8387 31.8879 55.9597C31.8879 55.9597 34.8966 56.2862 35.1143 57.8499C35.1143 57.8499 35.1438 58.3644 34.7977 58.8791ZM63.8937 49.8041H57.4967C57.061 49.7748 56.8709 49.6191 56.7959 49.5287L56.7912 49.5205L49.9434 37.6597L49.9345 37.6655L49.5239 37.0768C48.8508 36.0474 47.782 38.6799 47.782 38.6799C46.5059 41.6134 47.9632 44.9483 48.4711 45.9563L57.9825 62.4305C58.7311 63.7273 60.3895 64.172 61.6868 63.4229C62.9836 62.6741 63.4282 61.0156 62.6792 59.7186L60.301 55.5992C60.2548 55.4994 60.1746 55.2284 60.6624 55.2273H63.8937C65.3913 55.2273 66.6054 54.0132 66.6054 52.5155C66.6054 51.0179 65.3913 49.8038 63.8937 49.8038V49.8041ZM51.4685 53.4903C51.4685 53.4903 51.81 55.2273 50.4888 55.2273H26.8406C25.343 55.2273 24.1289 54.0132 24.1289 52.5155C24.1289 51.0179 25.343 49.8038 26.8406 49.8038H32.9203C33.9019 49.7471 34.1344 49.1804 34.1344 49.1804L34.14 49.1832L42.0759 35.4376L42.0736 35.4371C42.2182 35.1716 42.0977 34.9205 42.0769 34.8809L39.4559 30.3413C38.707 29.0445 39.1514 27.3859 40.4484 26.6373C41.7455 25.8884 43.4039 26.3326 44.1527 27.6296L45.3682 29.735L46.5816 27.6334C47.3304 26.3366 48.9888 25.8919 50.2859 26.641C51.5829 27.3898 52.0273 29.048 51.2784 30.3451L40.2352 49.4724C40.1869 49.5889 40.1721 49.7717 40.5314 49.8038H47.1324L47.1338 49.8683C47.1338 49.8683 50.9489 49.9276 51.4685 53.4903Z" fill="white"/>
</g>
<defs>
<linearGradient id="paint0_linear" x1="45.1289" y1="15.2734" x2="45.1289" y2="75.2734" gradientUnits="userSpaceOnUse">
<stop stop-color="#17C9FB"/>
<stop offset="1" stop-color="#1A74E8"/>
</linearGradient>
<clipPath id="clip0">
<rect width="60" height="60" fill="white" transform="translate(15.1289 15.2734)"/>
</clipPath>
</defs>
</svg>
