<svg width="180" height="91" viewBox="0 0 180 91" fill="none" xmlns="http://www.w3.org/2000/svg">
<g clip-path="url(#clip0)">
<path d="M15.1289 15.2734V19.3745H44.2977V15.2734H15.1289ZM48.4304 15.2734V19.3745H89.9972C89.9972 19.3745 85.7512 15.2734 80.1279 15.2734H48.4304ZM98.1513 15.2734V19.3745H123.299L121.806 15.2734H98.1513ZM141.328 15.2734L139.835 19.3745H164.754V15.2734H141.328ZM15.1289 23.249V27.3501H44.2977V23.249H15.1289ZM48.4304 23.2549V27.3501H94.8206C94.8206 27.3501 94.2789 24.1938 93.3338 23.2549H48.4304ZM98.1513 23.2549V27.3501H126.056L124.674 23.2549H98.1513ZM138.343 23.2549L136.961 27.3501H164.754V23.2549H138.343ZM23.5113 31.2247V35.331H36.1435V31.2247H23.5113ZM56.8128 31.2247V35.331H69.445V31.2247H56.8128ZM81.7318 31.2247V35.331H94.364C94.364 35.331 95.166 33.1622 95.166 31.2244H81.7318V31.2247ZM106.534 31.2247V35.331H128.93L127.437 31.2244H106.534V31.2247ZM135.591 31.2247L134.093 35.3313H156.6V31.2247H135.591ZM23.5113 39.2061V43.3066H36.1435V39.2061H23.5113ZM56.8128 39.2061V43.3066H89.0782C89.0782 43.3066 91.7773 41.2022 92.6372 39.2055H56.8128V39.2061ZM106.534 39.2061V43.3066H119.166V41.0237L119.968 43.3066H143.107L143.968 41.0237V43.3066H156.6V39.2061H132.887L131.628 42.68L130.364 39.2061H106.534ZM23.5113 47.1811V51.2822H36.1435V47.1811H23.5113ZM56.8128 47.1811V51.2822H92.6372C91.777 49.292 89.0782 47.1811 89.0782 47.1811H56.8128ZM106.534 47.1811V51.2822H119.166V47.1811H106.534ZM121.461 47.1811L122.988 51.2822H140.339L141.79 47.1811H121.461ZM143.968 47.1811V51.2822H156.6V47.1811H143.968ZM23.5113 55.1568V59.2578H36.1435V55.1568H23.5113ZM56.8128 55.1568V59.2578H69.445V55.1568H56.8128ZM81.7318 55.1568V59.2578H95.166C95.166 57.3223 94.364 55.1568 94.364 55.1568H81.7318ZM106.534 55.1568V59.2578H119.166V55.1568H106.534ZM124.329 55.1568L125.81 59.2578H137.441L138.934 55.1568H124.329ZM143.968 55.1568V59.2578H156.6V55.1568H143.968ZM15.3572 63.1327V67.2393H44.526V63.1324H15.3572V63.1327ZM48.4304 63.1327V67.2393H93.3338C94.2789 66.2989 94.8206 63.1324 94.8206 63.1324H48.4304V63.1327ZM98.3796 63.1327V67.2393H119.166V63.1324H98.3796V63.1327ZM127.203 63.1327L128.725 67.2393H134.643L136.071 63.1324H127.203V63.1327ZM143.968 63.1327V67.2393H164.983V63.1324H143.968V63.1327ZM15.3572 71.1138V75.2149H44.526V71.1138H15.3572ZM48.4304 71.1138V75.2088H80.1279C85.7512 75.2088 89.9972 71.1135 89.9972 71.1135H48.4304V71.1138ZM98.3796 71.1138V75.2149H119.166V71.1138H98.3796ZM130.089 71.1138L131.552 75.2029L131.804 75.2088L133.291 71.1135H130.089V71.1138ZM143.968 71.1138V75.2149H164.983V71.1138H143.968Z" fill="#1F70C1"/>
</g>
<defs>
<clipPath id="clip0">
<rect width="149.854" height="60" fill="white" transform="translate(15.1289 15.2734)"/>
</clipPath>
</defs>
</svg>
