<svg width="42" height="42" viewBox="0 0 42 42" fill="none" xmlns="http://www.w3.org/2000/svg">
<path d="M37.665 11.1252C36.4402 11.6536 35.1073 12.0338 33.7344 12.1819C35.1598 11.3351 36.2272 9.9973 36.7364 8.41948C35.3988 9.21515 33.9336 9.77309 32.4056 10.0685C31.7669 9.38581 30.9945 8.84191 30.1365 8.47074C29.2785 8.09957 28.3532 7.90908 27.4183 7.91115C23.6359 7.91115 20.5939 10.9771 20.5939 14.7396C20.5939 15.2679 20.6579 15.7963 20.762 16.3046C15.0983 16.0084 10.0471 13.3026 6.68889 9.15996C6.07699 10.2051 5.75634 11.3951 5.76028 12.6062C5.76028 14.9757 6.96507 17.0651 8.80226 18.2939C7.71957 18.2512 6.66224 17.9537 5.71626 17.4253V17.5094C5.71626 20.8275 8.06178 23.5773 11.1878 24.2097C10.6009 24.3622 9.99706 24.4402 9.39064 24.4419C8.94635 24.4419 8.52608 24.3978 8.1018 24.3378C8.96636 27.0436 11.484 29.0088 14.4819 29.0729C12.1364 30.9101 9.19851 31.9908 6.00845 31.9908C5.43607 31.9908 4.90773 31.9708 4.35938 31.9067C7.38534 33.848 10.9757 34.9687 14.8422 34.9687C27.3943 34.9687 34.2628 24.57 34.2628 15.5441C34.2628 15.2479 34.2628 14.9517 34.2428 14.6555C35.5716 13.6829 36.7364 12.4781 37.665 11.1252Z" fill="#2091F9"/>
</svg>
