<svg width="27" height="23" viewBox="0 0 27 23" fill="none" xmlns="http://www.w3.org/2000/svg">
<g clip-path="url(#clip0)">
<path d="M25.3125 0.806152H0.9375C0.418945 0.806152 0 1.2251 0 1.74365V20.4937C0 21.0122 0.418945 21.4312 0.9375 21.4312H25.3125C25.8311 21.4312 26.25 21.0122 26.25 20.4937V1.74365C26.25 1.2251 25.8311 0.806152 25.3125 0.806152ZM24.1406 4.05225V19.3218H2.10938V4.05225L1.30078 3.42236L2.45215 1.94287L3.70605 2.91846H22.5469L23.8008 1.94287L24.9521 3.42236L24.1406 4.05225ZM22.5469 2.91553L13.125 10.2397L3.70312 2.91553L2.44922 1.93994L1.29785 3.41943L2.10645 4.04932L12.1143 11.8306C12.4021 12.0542 12.7561 12.1755 13.1206 12.1755C13.4851 12.1755 13.8391 12.0542 14.127 11.8306L24.1406 4.05225L24.9492 3.42236L23.7979 1.94287L22.5469 2.91553Z" fill="#2091F9"/>
</g>
<defs>
<clipPath id="clip0">
<rect width="27" height="22" fill="white" transform="translate(0 0.118652)"/>
</clipPath>
</defs>
</svg>
