<svg width="42" height="42" viewBox="0 0 42 42" fill="none" xmlns="http://www.w3.org/2000/svg">
<path d="M36.2126 4.60107H6.75349C6.04503 4.60107 5.47266 5.17345 5.47266 5.88191V35.341C5.47266 36.0495 6.04503 36.6219 6.75349 36.6219H36.2126C36.9211 36.6219 37.4934 36.0495 37.4934 35.341V5.88191C37.4934 5.17345 36.9211 4.60107 36.2126 4.60107ZM32.5142 13.9471H29.9565C27.9512 13.9471 27.563 14.8998 27.563 16.3007V19.3867H32.3501L31.7257 24.2178H27.563V36.6219H22.5718V24.2218H18.397V19.3867H22.5718V15.8244C22.5718 11.6897 25.0974 9.43621 28.7878 9.43621C30.5569 9.43621 32.0739 9.5683 32.5182 9.62834V13.9471H32.5142Z" fill="white"/>
</svg>
