<svg width="41" height="42" viewBox="0 0 41 42" fill="none" xmlns="http://www.w3.org/2000/svg">
<path d="M37.1455 10.2966C35.9207 10.825 34.5878 11.2052 33.2149 11.3533C34.6403 10.5065 35.7077 9.16869 36.2168 7.59087C34.8793 8.38654 33.414 8.94448 31.886 9.23994C31.2474 8.5572 30.475 8.0133 29.617 7.64213C28.7589 7.27096 27.8337 7.08047 26.8988 7.08254C23.1163 7.08254 20.0744 10.1485 20.0744 13.911C20.0744 14.4393 20.1384 14.9677 20.2425 15.476C14.5788 15.1798 9.52753 12.474 6.16936 8.33135C5.55746 9.37649 5.2368 10.5665 5.24075 11.7776C5.24075 14.1471 6.44553 16.2365 8.28273 17.4653C7.20004 17.4226 6.14271 17.125 5.19672 16.5967V16.6808C5.19672 19.9989 7.54225 22.7487 10.6683 23.3811C10.0813 23.5336 9.47753 23.6116 8.87111 23.6133C8.42682 23.6133 8.00655 23.5692 7.58227 23.5092C8.44683 26.215 10.9645 28.1802 13.9624 28.2443C11.6169 30.0815 8.67898 31.1622 5.48891 31.1622C4.91654 31.1622 4.3882 31.1421 3.83984 31.0781C6.86581 33.0194 10.4561 34.1401 14.3226 34.1401C26.8748 34.1401 33.7432 23.7413 33.7432 14.7155C33.7432 14.4193 33.7432 14.1231 33.7232 13.8269C35.0521 12.8543 36.2168 11.6495 37.1455 10.2966Z" fill="white"/>
</svg>
