<svg width="42" height="42" viewBox="0 0 42 42" fill="none" xmlns="http://www.w3.org/2000/svg">
<path d="M35.7165 5.42969H6.25739C5.54893 5.42969 4.97656 6.00206 4.97656 6.71052V36.1696C4.97656 36.8781 5.54893 37.4505 6.25739 37.4505H35.7165C36.425 37.4505 36.9973 36.8781 36.9973 36.1696V6.71052C36.9973 6.00206 36.425 5.42969 35.7165 5.42969ZM14.4747 32.7154H9.72364V17.4335H14.4747V32.7154ZM12.1012 15.3441C11.5565 15.3441 11.0241 15.1826 10.5713 14.88C10.1184 14.5774 9.76545 14.1474 9.55702 13.6442C9.34859 13.141 9.29406 12.5873 9.40031 12.0531C9.50657 11.5189 9.76884 11.0282 10.154 10.6431C10.5391 10.258 11.0298 9.99572 11.5639 9.88946C12.0981 9.7832 12.6518 9.83774 13.155 10.0462C13.6582 10.2546 14.0883 10.6076 14.3909 11.0604C14.6935 11.5133 14.855 12.0457 14.855 12.5903C14.851 14.1113 13.6182 15.3441 12.1012 15.3441ZM32.2623 32.7154H27.5152V25.2826C27.5152 23.5094 27.4832 21.2319 25.0456 21.2319C22.576 21.2319 22.1957 23.1612 22.1957 25.1545V32.7154H17.4527V17.4335H22.0076V19.5228H22.0717C22.7041 18.3221 24.2531 17.0532 26.5666 17.0532C31.3777 17.0532 32.2623 20.2193 32.2623 24.334V32.7154Z" fill="#2091F9"/>
</svg>
