<svg width="42" height="42" viewBox="0 0 42 42" fill="none" xmlns="http://www.w3.org/2000/svg">
<path d="M36.197 4.60107H6.73786C6.0294 4.60107 5.45703 5.17345 5.45703 5.88191V35.341C5.45703 36.0495 6.0294 36.6219 6.73786 36.6219H36.197C36.9054 36.6219 37.4778 36.0495 37.4778 35.341V5.88191C37.4778 5.17345 36.9054 4.60107 36.197 4.60107ZM14.9552 31.8868H10.2041V16.6049H14.9552V31.8868ZM12.5817 14.5155C12.037 14.5155 11.5046 14.354 11.0517 14.0514C10.5989 13.7488 10.2459 13.3187 10.0375 12.8155C9.82906 12.3124 9.77453 11.7587 9.88078 11.2245C9.98704 10.6903 10.2493 10.1996 10.6344 9.8145C11.0196 9.42938 11.5102 9.1671 12.0444 9.06085C12.5786 8.95459 13.1323 9.00913 13.6355 9.21755C14.1387 9.42598 14.5688 9.77894 14.8713 10.2318C15.1739 10.6847 15.3354 11.2171 15.3354 11.7617C15.3314 13.2827 14.0986 14.5155 12.5817 14.5155ZM32.7427 31.8868H27.9957V24.454C27.9957 22.6808 27.9636 20.4033 25.5261 20.4033C23.0565 20.4033 22.6762 22.3326 22.6762 24.3259V31.8868H17.9331V16.6049H22.4881V18.6942H22.5521C23.1845 17.4934 24.7335 16.2246 27.047 16.2246C31.8582 16.2246 32.7427 19.3907 32.7427 23.5053V31.8868Z" fill="white"/>
</svg>
