<svg width="42" height="42" viewBox="0 0 42 42" fill="none" xmlns="http://www.w3.org/2000/svg">
<path d="M35.7321 5.42969H6.27302C5.56456 5.42969 4.99219 6.00206 4.99219 6.71052V36.1696C4.99219 36.8781 5.56456 37.4505 6.27302 37.4505H35.7321C36.4406 37.4505 37.013 36.8781 37.013 36.1696V6.71052C37.013 6.00206 36.4406 5.42969 35.7321 5.42969ZM32.0337 14.7758H29.4761C27.4708 14.7758 27.0825 15.7284 27.0825 17.1293V20.2153H31.8696L31.2452 25.0464H27.0825V37.4505H22.0913V25.0504H17.9166V20.2153H22.0913V16.653C22.0913 12.5183 24.6169 10.2648 28.3073 10.2648C30.0765 10.2648 31.5934 10.3969 32.0377 10.4569V14.7758H32.0337Z" fill="#2091F9"/>
</svg>
