<svg width="27" height="33" viewBox="0 0 27 33" fill="none" xmlns="http://www.w3.org/2000/svg">
<g clip-path="url(#clip0)">
<path d="M13.5013 19.2853C16.9941 19.2853 19.8346 16.4448 19.8346 12.952C19.8346 9.45915 16.9941 6.61865 13.5013 6.61865C10.0085 6.61865 7.16797 9.45915 7.16797 12.952C7.16797 16.4448 10.0085 19.2853 13.5013 19.2853ZM13.5013 9.78532C15.2477 9.78532 16.668 11.2056 16.668 12.952C16.668 14.6984 15.2477 16.1187 13.5013 16.1187C11.7549 16.1187 10.3346 14.6984 10.3346 12.952C10.3346 11.2056 11.7549 9.78532 13.5013 9.78532Z" fill="#2091F9"/>
<path d="M12.2485 31.6573C12.5164 31.8487 12.8375 31.9516 13.1668 31.9516C13.4961 31.9516 13.8172 31.8487 14.0851 31.6573C14.5665 31.3169 25.8794 23.1485 25.8335 12.9518C25.8335 5.96774 20.1509 0.285156 13.1668 0.285156C6.18272 0.285156 0.500139 5.96774 0.500139 12.9439C0.454223 23.1485 11.7671 31.3169 12.2485 31.6573ZM13.1668 3.45182C18.4061 3.45182 22.6668 7.71257 22.6668 12.9597C22.7001 19.9866 15.7191 26.2962 13.1668 28.3656C10.6161 26.2946 3.63356 19.9834 3.66681 12.9518C3.66681 7.71257 7.92756 3.45182 13.1668 3.45182Z" fill="#2091F9"/>
</g>
<defs>
<clipPath id="clip0">
<rect width="26" height="32" fill="white" transform="translate(0.5 0.118652)"/>
</clipPath>
</defs>
</svg>
