<svg width="146" height="30" viewBox="0 0 146 30" fill="none" xmlns="http://www.w3.org/2000/svg">
<g clip-path="url(#clip0)">
<path d="M26.7025 11.9151C26.626 11.6898 26.4852 11.4919 26.2976 11.3457C26.1099 11.1996 25.8835 11.1116 25.6464 11.0926L18.7102 10.5415L15.7087 3.89723C15.6131 3.68324 15.4576 3.50148 15.261 3.37389C15.0644 3.24631 14.8351 3.17835 14.6007 3.17822C14.3663 3.17809 14.1369 3.2458 13.9402 3.37317C13.7434 3.50054 13.5877 3.68213 13.4919 3.89602L10.4904 10.5415L3.55418 11.0926C3.32113 11.1111 3.09834 11.1963 2.91245 11.338C2.72656 11.4798 2.58546 11.6721 2.50601 11.892C2.42656 12.1118 2.41214 12.3499 2.46446 12.5778C2.51679 12.8056 2.63365 13.0136 2.80106 13.1767L7.92688 18.1736L6.11404 26.0235C6.059 26.2611 6.07664 26.5098 6.16468 26.7373C6.25272 26.9647 6.40709 27.1605 6.60777 27.2991C6.80844 27.4378 7.04615 27.5129 7.29005 27.5147C7.53395 27.5166 7.77278 27.4451 7.97554 27.3096L14.6003 22.8931L21.225 27.3096C21.4323 27.4471 21.6767 27.518 21.9254 27.5125C22.1741 27.5071 22.4152 27.4256 22.6162 27.279C22.8172 27.1325 22.9685 26.9279 23.0498 26.6928C23.131 26.4577 23.1383 26.2033 23.0707 25.9639L20.8454 18.1772L26.3642 13.2108C26.7256 12.8848 26.8582 12.3762 26.7025 11.9151Z" fill="#F3CD03"/>
<path d="M55.9017 11.9151C55.8252 11.6898 55.6845 11.4919 55.4968 11.3457C55.3091 11.1996 55.0827 11.1116 54.8456 11.0926L47.9094 10.5415L44.9079 3.89723C44.8123 3.68324 44.6568 3.50148 44.4602 3.37389C44.2636 3.24631 44.0343 3.17835 43.7999 3.17822C43.5655 3.17809 43.3361 3.2458 43.1394 3.37317C42.9426 3.50054 42.787 3.68213 42.6911 3.89602L39.6896 10.5415L32.7534 11.0926C32.5203 11.1111 32.2976 11.1963 32.1117 11.338C31.9258 11.4798 31.7847 11.6721 31.7052 11.892C31.6258 12.1118 31.6114 12.3499 31.6637 12.5778C31.716 12.8056 31.8329 13.0136 32.0003 13.1767L37.1261 18.1736L35.3133 26.0235C35.2582 26.2611 35.2759 26.5098 35.3639 26.7373C35.4519 26.9647 35.6063 27.1605 35.807 27.2991C36.0077 27.4378 36.2454 27.5129 36.4893 27.5147C36.7332 27.5166 36.972 27.4451 37.1748 27.3096L43.7995 22.8931L50.4243 27.3096C50.6315 27.4471 50.8759 27.518 51.1246 27.5125C51.3733 27.5071 51.6144 27.4256 51.8154 27.279C52.0164 27.1325 52.1677 26.9279 52.249 26.6928C52.3302 26.4577 52.3376 26.2033 52.2699 25.9639L50.0447 18.1772L55.5635 13.2108C55.9248 12.8848 56.0574 12.3762 55.9017 11.9151Z" fill="#F3CD03"/>
<path d="M85.1009 11.9151C85.0244 11.6898 84.8837 11.4919 84.696 11.3457C84.5083 11.1996 84.282 11.1116 84.0448 11.0926L77.1086 10.5415L74.1071 3.89723C74.0115 3.68324 73.856 3.50148 73.6594 3.37389C73.4628 3.24631 73.2335 3.17835 72.9991 3.17822C72.7647 3.17809 72.5353 3.2458 72.3386 3.37317C72.1419 3.50054 71.9862 3.68213 71.8903 3.89602L68.8888 10.5415L61.9526 11.0926C61.7196 11.1111 61.4968 11.1963 61.3109 11.338C61.125 11.4798 60.9839 11.6721 60.9044 11.892C60.825 12.1118 60.8106 12.3499 60.8629 12.5778C60.9152 12.8056 61.0321 13.0136 61.1995 13.1767L66.3253 18.1736L64.5125 26.0235C64.4574 26.2611 64.4751 26.5098 64.5631 26.7373C64.6512 26.9647 64.8055 27.1605 65.0062 27.2991C65.2069 27.4378 65.4446 27.5129 65.6885 27.5147C65.9324 27.5166 66.1712 27.4451 66.374 27.3096L72.9987 22.8931L79.6235 27.3096C79.8307 27.4471 80.0751 27.518 80.3238 27.5125C80.5725 27.5071 80.8136 27.4256 81.0146 27.279C81.2156 27.1325 81.3669 26.9279 81.4482 26.6928C81.5295 26.4577 81.5368 26.2033 81.4692 25.9639L79.2439 18.1772L84.7627 13.2108C85.124 12.8848 85.2566 12.3762 85.1009 11.9151Z" fill="#F3CD03"/>
<path d="M114.304 11.9151C114.228 11.6898 114.087 11.4919 113.899 11.3457C113.711 11.1996 113.485 11.1116 113.248 11.0926L106.312 10.5415L103.31 3.89723C103.215 3.68324 103.059 3.50148 102.863 3.37389C102.666 3.24631 102.437 3.17835 102.202 3.17822C101.968 3.17809 101.738 3.2458 101.542 3.37317C101.345 3.50054 101.189 3.68213 101.093 3.89602L98.092 10.5415L91.1557 11.0926C90.9227 11.1111 90.6999 11.1963 90.514 11.338C90.3281 11.4798 90.187 11.6721 90.1076 11.892C90.0281 12.1118 90.0137 12.3499 90.066 12.5778C90.1183 12.8056 90.2352 13.0136 90.4026 13.1767L95.5284 18.1736L93.7156 26.0235C93.6606 26.2611 93.6782 26.5098 93.7662 26.7373C93.8543 26.9647 94.0087 27.1605 94.2093 27.2991C94.41 27.4378 94.6477 27.5129 94.8916 27.5147C95.1355 27.5166 95.3743 27.4451 95.5771 27.3096L102.202 22.8931L108.827 27.3096C109.034 27.4471 109.278 27.518 109.527 27.5125C109.776 27.5071 110.017 27.4256 110.218 27.279C110.419 27.1325 110.57 26.9279 110.651 26.6928C110.733 26.4577 110.74 26.2033 110.672 25.9639L108.447 18.1772L113.966 13.2108C114.327 12.8848 114.46 12.3762 114.304 11.9151Z" fill="#F3CD03"/>
<path d="M124.729 18.1735L122.916 26.0234C122.86 26.2611 122.877 26.5102 122.964 26.7382C123.052 26.9662 123.206 27.1624 123.407 27.3013C123.608 27.4402 123.846 27.5153 124.091 27.5167C124.335 27.5182 124.574 27.4459 124.776 27.3094L131.401 22.8929L138.026 27.3094C138.233 27.447 138.477 27.5179 138.726 27.5124C138.975 27.507 139.216 27.4255 139.417 27.2789C139.618 27.1324 139.769 26.9278 139.851 26.6927C139.932 26.4576 139.939 26.2032 139.872 25.9638L137.646 18.1771L143.165 13.2107C143.342 13.0515 143.468 12.8441 143.528 12.6139C143.588 12.3838 143.58 12.1411 143.503 11.9158C143.427 11.6906 143.286 11.4927 143.098 11.3465C142.911 11.2004 142.684 11.1125 142.447 11.0937L135.511 10.5413L132.509 3.89711C132.414 3.68317 132.258 3.5015 132.061 3.37402C131.865 3.24654 131.635 3.17871 131.401 3.17871C131.167 3.17871 130.937 3.24654 130.741 3.37402C130.544 3.5015 130.388 3.68317 130.293 3.89711L127.291 10.5413L120.355 11.0925C120.122 11.1109 119.899 11.1962 119.713 11.3379C119.527 11.4797 119.386 11.672 119.307 11.8919C119.227 12.1117 119.213 12.3498 119.265 12.5777C119.318 12.8055 119.434 13.0135 119.602 13.1766L124.729 18.1735ZM128.2 12.9102C128.417 12.8931 128.626 12.8179 128.804 12.6924C128.982 12.567 129.123 12.3959 129.212 12.1972L131.401 7.35366L133.59 12.1972C133.679 12.3959 133.82 12.567 133.998 12.6924C134.176 12.8179 134.385 12.8931 134.602 12.9102L139.435 13.2934L135.455 16.8753C135.109 17.1868 134.972 17.6661 135.099 18.1139L136.623 23.4489L132.078 20.4182C131.878 20.2843 131.643 20.2128 131.403 20.2128C131.163 20.2128 130.928 20.2843 130.728 20.4182L125.978 23.5852L127.256 18.0542C127.303 17.8508 127.296 17.6388 127.238 17.4385C127.179 17.2382 127.069 17.0564 126.92 16.9106L123.224 13.3068L128.2 12.9102Z" fill="#F3CD03"/>
</g>
<defs>
<clipPath id="clip0">
<rect width="146" height="29.2" fill="white" transform="translate(0 0.74707)"/>
</clipPath>
</defs>
</svg>
