<svg width="677" height="514" viewBox="0 0 677 514" fill="none" xmlns="http://www.w3.org/2000/svg">
<g clip-path="url(#clip0)">
<path d="M364.212 514C500.497 514 610.978 482.383 610.978 443.381C610.978 404.379 500.497 372.762 364.212 372.762C227.926 372.762 117.445 404.379 117.445 443.381C117.445 482.383 227.926 514 364.212 514Z" fill="#F5F5F5"/>
<path d="M598.995 168.666C598.995 168.666 555.282 212.45 579.959 277.419C604.636 342.389 537.656 450.436 537.656 450.436C537.656 450.436 538.361 450.33 539.708 450.097C629.489 434.222 674.097 331.372 624.173 254.97C605.637 226.567 590.373 193.242 598.995 168.666Z" fill="#2091F9"/>
<path d="M598.995 168.666C598.995 168.666 574.319 222.337 598.995 266.12C623.672 309.904 603.226 432.781 537.656 450.436" stroke="#535461" stroke-width="2" stroke-miterlimit="10"/>
<path d="M676.843 345.757C676.843 345.757 626.961 337.799 622.414 382.578C617.866 427.358 526.527 433.558 526.527 433.558C526.527 433.558 527.12 433.967 528.241 434.702C603.681 484.305 675.8 466.297 664.935 400.43C660.867 375.947 661.191 351.35 676.843 345.757Z" fill="#2091F9"/>
<path opacity="0.2" d="M676.843 345.757C676.843 345.757 626.961 337.799 622.414 382.578C617.866 427.358 526.527 433.558 526.527 433.558C526.527 433.558 527.12 433.967 528.241 434.702C603.681 484.305 675.8 466.297 664.935 400.43C660.867 375.947 661.191 351.35 676.843 345.757Z" fill="#F5F5F5"/>
<path d="M676.844 345.757C676.844 345.757 638.123 354.274 641.303 389.541C644.483 424.808 583.778 467.067 526.5 433.544" stroke="#535461" stroke-width="2" stroke-miterlimit="10"/>
<path opacity="0.2" d="M106.745 0.0563924C101.062 -0.141341 95.2386 0.0563921 89.9084 2.04785C75.4056 7.46432 68.5314 25.1826 70.7664 40.5281C73.0014 55.8736 82.1952 69.1994 91.7345 81.4094C101.274 93.6194 111.61 105.674 116.841 120.25C119.45 127.531 120.67 135.687 118.019 142.954C113.929 154.161 101.598 160.425 89.7604 161.724C77.9226 163.024 66.0355 160.489 54.1555 159.606C49.1708 159.253 44.0451 159.21 39.3495 160.849C34.1956 162.635 29.9019 166.279 25.9536 170.079C10.5484 184.979 -1.7829 205.317 0.212379 226.673C2.46853 250.881 22.5906 270.019 44.6303 280.279C51.9276 283.683 59.6478 286.437 66.0708 291.296C82.9919 304.106 86.7921 328.11 85.1071 349.302C83.422 370.495 77.6829 391.709 80.8768 412.718C84.6347 437.152 101.267 459.221 123.701 469.531C143.689 478.712 168.704 478.14 186.451 465.153C195.101 458.797 201.644 450.033 207.334 440.945C215.922 427.233 222.89 412.568 228.098 397.246C230.572 389.965 232.899 382.133 238.673 377.07C242.199 373.956 246.767 372.211 251.287 370.855C264.908 366.773 279.256 365.651 293.004 362.021C306.753 358.391 320.586 351.626 328.059 339.529C338.635 322.361 333.7 300.406 333.749 280.209C333.833 234.194 361.323 192.994 371.469 148.151C374.783 133.491 376.016 117.27 368.613 104.198C363.579 95.279 355.098 88.9233 346.179 83.9799C326.579 73.0764 304.299 68.2249 282.379 63.5005C251.914 56.947 214.92 56.0996 191.308 34.8998C168.648 14.5615 137.647 0.0563924 106.745 0.0563924Z" fill="#2091F9"/>
<g opacity="0.5">
<path opacity="0.5" d="M217.254 178.164C217.252 167.073 215.518 156.05 212.114 145.496L203.654 119.219C203.654 118.781 203.654 118.35 203.654 117.919C203.915 101.077 190.808 92.6732 185.76 93.5842C180.592 94.5163 166.251 87.3132 166.251 87.3132V87.5109C165.268 86.3772 164.381 85.163 163.6 83.8811C166.078 82.0736 168.17 79.7882 169.753 77.1593C171.336 74.5304 172.379 71.6111 172.82 68.5728C173.26 65.5345 173.09 62.4386 172.32 59.467C171.549 56.4955 170.192 53.7083 168.331 51.2693C169.881 50.1028 171.063 48.5142 171.736 46.6932C172.907 43.3953 172.011 39.6313 170.107 36.6935C169.298 35.4672 168.352 34.3371 167.287 33.325C165.675 31.7249 163.914 30.2824 162.028 29.0172C157.325 25.7546 152.157 22.9511 146.517 21.9553C145.541 21.7245 144.524 21.7245 143.548 21.9553C142.701 22.2977 141.895 22.7336 141.144 23.2547C137.281 25.4581 132.472 24.5047 128.016 24.2716C123.56 24.0386 118.146 25.2886 116.735 29.4763C116.298 30.7686 116.327 32.1668 116.03 33.4945C115.325 36.743 112.822 39.264 110.891 41.9688C108.959 44.6735 107.513 48.3245 109.121 51.2622C109.671 52.2509 110.531 53.1619 110.531 54.2918C110.531 55.1039 110.052 55.8313 109.826 56.6081C109.34 58.3735 110.256 60.139 111.666 61.4172C112.274 62.0734 112.989 62.6203 113.781 63.0344C116.016 64.1784 118.59 64.5315 120.867 65.5908C122.004 66.1255 123.047 66.841 123.955 67.7094C125.068 68.8763 125.938 70.2534 126.514 71.7604C127.09 73.2675 127.361 74.8743 127.311 76.4873L127.784 76.5367C127.784 76.678 127.784 76.8122 127.784 76.9534C128.277 77.0099 128.799 77.0593 129.313 77.0805C130.054 78.2776 130.901 79.4051 131.845 80.449C131.685 81.0516 131.504 81.6637 131.302 82.2851C129.645 83.4362 116.094 92.4754 100.682 90.3004C84.2328 87.977 74.8275 160.008 74.8275 160.008C74.2178 164.128 73.9208 168.287 73.9391 172.451C73.8686 183.044 76.0895 196.907 88.4631 194.866L95.0412 192.698V228.325C95.0412 228.325 95.9789 238.085 92.6933 244.567C89.4078 251.05 103.036 248.748 103.036 248.748C103.036 248.748 103.558 249.292 104.517 250.217L104.214 251.071L104.616 251.481C102.823 257.619 100.406 263.556 97.4031 269.199L97.7908 269.397C97.5441 269.87 97.4031 270.103 97.4031 270.103C97.4031 270.103 102.465 272.695 109.431 276.035C115.029 294.989 127.283 338.886 123.25 347.247L123.363 347.488C124.117 349.055 128.333 358.299 127.48 366.767C126.712 374.337 137.175 408.735 141.081 421.228L139.234 421.602L145.812 445.302L144.401 460.64C144.401 460.64 136.413 482.017 155.21 477.836C174.006 473.655 168.838 456.46 168.838 456.46L169.311 421.602C169.311 421.602 167.499 420.592 165.264 419.625C163.727 415.465 160.378 405.635 160.378 398.835C160.378 390.007 154.265 351.894 154.265 351.894V351.816V351.668V351.626L154.23 351.117V351.033C154.23 350.559 154.152 349.91 154.096 349.119V349.076C153.391 338.773 151.276 303.767 152.82 285.519C154.178 284.592 155.59 283.748 157.05 282.991C161.626 294.573 173.421 325.864 172.667 338.992C171.729 355.234 172.434 342.481 172.667 340.404C172.737 339.762 172.787 340.539 172.808 342.283C172.808 342.601 172.808 342.954 172.808 343.328C172.808 343.702 172.808 344.119 172.808 344.55C172.808 344.981 172.808 345.447 172.808 345.962C172.808 346.207 172.808 346.456 172.808 346.711C172.808 347.219 172.808 347.751 172.808 348.307C172.808 348.584 172.808 348.867 172.808 349.154C172.808 350.567 172.808 352.134 172.758 353.766C172.758 354.09 172.758 354.42 172.758 354.754C172.758 355.75 172.758 356.767 172.709 357.798C172.709 359.21 172.653 360.58 172.625 362C172.554 365.178 172.462 368.391 172.35 371.399C172.35 371.733 172.338 372.065 172.314 372.395C172.291 373.054 172.265 373.699 172.237 374.33C172.209 374.961 172.18 375.577 172.152 376.18C172.124 376.778 172.093 377.359 172.06 377.924C172.025 378.588 171.983 379.224 171.948 379.831L169.395 379.464L168.853 385.339C167.997 394.668 169.201 404.07 172.378 412.881C173.252 415.296 173.929 417.294 174.077 418.008C174.549 420.331 174.077 437.075 174.077 437.075C174.077 437.075 176.897 458.917 190.06 454.729C195.983 452.844 198.859 447.11 200.234 441.361C201.76 434.698 201.191 427.725 198.605 421.397C196.737 416.694 194.826 410.098 196.173 405C198.521 396.172 198.521 383.623 198.521 383.623L197.069 383.418C197.43 382.729 197.758 382.022 198.049 381.3C198.049 381.3 197.576 349.232 201.806 345.051C204.133 342.749 203.922 337.22 203.217 332.7C202.209 326.159 201.973 319.523 202.511 312.927C202.801 309.53 203.217 306.571 203.703 305.519C204.944 303.061 206.185 278.288 200.692 266.368L201.821 266.014L201.644 265.139L201.821 265.082C202.649 267.297 203.59 269.468 204.641 271.586C204.918 271.804 205.237 271.963 205.578 272.052C220.8 269.376 221.414 255.146 220.568 247.378C221.209 247.689 221.562 247.887 221.562 247.887L222.972 227.407C224.417 224.137 224.953 219.964 224.918 215.451C224.981 199.322 217.254 178.164 217.254 178.164ZM200.474 236.376C199.43 227.456 197.985 219.06 197.985 219.06L190.935 193.962V184.824L202.117 226.63L200.474 236.376Z" fill="url(#paint0_linear)"/>
</g>
<path d="M168.774 373.468L168.252 379.21C167.429 388.332 168.596 397.525 171.672 406.151C172.511 408.516 173.166 410.466 173.307 411.165C173.759 413.439 173.307 429.787 173.307 429.787C173.307 429.787 176.029 451.135 188.727 447.046C194.438 445.21 197.187 439.596 198.541 433.982C200.009 427.47 199.458 420.666 196.962 414.477C195.157 409.879 193.31 403.418 194.614 398.453C196.884 389.824 196.884 377.564 196.884 377.564L168.774 373.468Z" fill="#5A5773"/>
<path d="M155.172 274.912C155.172 274.912 172.854 318.061 171.945 333.95C171.035 349.839 171.719 337.354 171.945 335.313C172.347 331.676 171.945 374.859 170.584 379.803C170.584 379.803 189.176 393.425 196.431 375.262C196.431 375.262 195.98 343.928 200.055 339.839C202.297 337.594 202.079 332.184 201.416 327.771C200.438 321.386 200.201 314.91 200.711 308.471C200.986 305.151 201.367 302.228 201.86 301.232C203.221 298.506 204.582 267.625 196.417 258.995L155.172 274.912Z" fill="#605D82"/>
<path opacity="0.1" d="M172.855 379.824C174.216 374.831 174.618 331.676 174.216 335.334C173.99 337.375 173.306 349.867 174.216 333.971C175.125 318.075 157.443 274.934 157.443 274.934L197.003 259.694C196.82 259.461 196.629 259.242 196.439 259.037L155.18 274.934C155.18 274.934 172.862 318.082 171.953 333.971C171.043 349.86 171.727 337.375 171.953 335.334C172.355 331.697 171.953 374.881 170.592 379.824C170.592 379.824 178.016 385.262 185.313 384.683C178.82 384.195 172.855 379.824 172.855 379.824Z" fill="black"/>
<path d="M139.754 414.794L146.099 437.957L144.739 452.943C144.739 452.943 137.032 473.832 155.166 469.743C173.3 465.654 168.315 448.854 168.315 448.854L168.767 414.794C168.767 414.794 161.512 410.706 158.339 411.165C155.166 411.624 139.754 414.794 139.754 414.794Z" fill="#5A5773"/>
<path d="M108.473 264.016C108.473 264.016 129.328 331.683 124.343 342.128C124.343 342.128 129.328 352.12 128.425 361.195C127.523 370.269 142.935 418.869 142.935 418.869L165.61 414.78C165.61 414.78 160.167 401.158 160.167 392.528C160.167 383.899 154.272 346.626 154.272 346.626C154.272 346.626 149.288 278.5 155.182 271.233L108.473 264.016Z" fill="#605D82"/>
<g opacity="0.1">
<path opacity="0.1" d="M153.421 276.77C149.663 292.193 153.816 348.949 153.816 348.949C153.816 348.949 159.71 386.187 159.71 394.852C159.71 401.44 162.876 410.932 164.378 415.056L165.604 414.837C165.604 414.837 160.162 401.214 160.162 392.585C160.162 383.955 154.267 346.683 154.267 346.683C154.267 346.683 150.474 294.813 153.421 276.77Z" fill="black"/>
<path opacity="0.1" d="M124.344 342.128L124.457 342.361C124.492 342.128 124.527 341.881 124.548 341.655C124.488 341.816 124.42 341.974 124.344 342.128Z" fill="black"/>
<path opacity="0.1" d="M154.153 273.465C154.359 272.681 154.705 271.942 155.175 271.283L108.473 264.016C108.473 264.016 108.748 264.899 109.22 266.474L154.153 273.465Z" fill="black"/>
</g>
<path d="M217.288 239.49C217.288 239.49 224.092 264.913 203.688 268.557C203.357 268.471 203.047 268.317 202.778 268.105C202.778 268.105 190.99 244.942 200.057 235.86L217.288 239.49Z" fill="#FAC3CA"/>
<path d="M133.861 70.5625C133.861 70.5625 135.222 89.6296 120.261 98.7183C105.3 107.807 151.988 132.778 151.988 132.778L176.474 93.7185C176.474 93.7185 166.054 95.0673 159.708 76.9182L133.861 70.5625Z" fill="#FAC3CA"/>
<path opacity="0.1" d="M123.882 100.067C123.882 100.067 147.008 148.208 167.863 102.793L200.056 262.646C200.056 262.646 150.174 278.09 149.729 285.357C149.285 292.624 99.4102 266.742 99.4102 266.742C99.4102 266.742 110.289 246.757 107.575 234.497C104.86 222.238 123.882 100.067 123.882 100.067Z" fill="black"/>
<path d="M123.882 99.156C123.882 99.156 147.008 147.297 167.863 101.882L200.056 261.742C200.056 261.742 150.174 277.186 149.729 284.453C149.285 291.72 99.4102 265.831 99.4102 265.831C99.4102 265.831 110.289 245.846 107.575 233.586C104.86 221.327 123.882 99.156 123.882 99.156Z" fill="#E1E7EF"/>
<path d="M146.56 427.513C146.56 427.513 140.666 414.343 154.266 414.343C167.866 414.343 165.603 426.15 165.603 426.15L146.56 427.513Z" fill="#5A5773"/>
<path d="M177.392 393.446C177.392 393.446 171.949 379.365 185.556 378.913C199.163 378.461 192.36 391.624 192.36 391.624L177.392 393.446Z" fill="#5A5773"/>
<path opacity="0.1" d="M165.828 88.9233C165.828 88.9233 179.654 95.9852 184.646 95.0531C189.638 94.1209 202.78 102.772 201.877 120.031L210.07 145.779C213.347 156.103 215.012 166.872 215.005 177.705C215.005 177.705 226.794 210.402 220.448 224.935L219.087 244.921C219.087 244.921 208.66 239.017 197.774 240.832L200.516 224.512L188.249 178.179L167.845 128.675L165.828 88.9233Z" fill="black"/>
<path d="M165.828 88.0264C165.828 88.0264 179.654 95.0883 184.646 94.1561C189.638 93.2239 202.78 101.875 201.877 119.134L210.07 144.882C213.347 155.206 215.012 165.975 215.005 176.809C215.005 176.809 226.794 209.505 220.448 224.038L219.087 244.024C219.087 244.024 208.66 238.12 197.774 239.935L200.495 223.587L188.249 177.268L167.866 127.764L165.828 88.0264Z" fill="#67647E"/>
<path opacity="0.1" d="M188.728 143.208V194.527L195.532 219.053C195.532 219.053 200.065 245.846 198.704 254.023C197.344 262.201 175.579 264.016 169.685 257.201C163.791 250.387 166.963 192.232 166.963 192.232L165.828 107.101L166.738 104.375L188.728 143.208Z" fill="black"/>
<path d="M189.658 140.941V192.26L196.461 216.786C196.461 216.786 200.995 243.579 199.634 251.757C198.273 259.934 176.509 261.749 170.614 254.935C164.72 248.12 167.893 189.965 167.893 189.965L166.758 104.813L189.658 140.941Z" fill="#67647E"/>
<path opacity="0.1" d="M98.2695 183.63L112.779 228.827L105.976 248.127C105.976 248.127 138.168 282.186 158.572 265.838C158.572 265.838 160.842 196.349 156.302 180.001C151.761 163.652 130.004 108.676 130.004 108.676L125.498 94.1633L101.47 107.786L98.2695 183.63Z" fill="black"/>
<path d="M97.1332 181.356V225.846C97.1332 225.846 98.0427 235.387 94.863 241.743C91.6832 248.098 104.839 245.832 104.839 245.832C104.839 245.832 137.032 279.891 157.436 263.543C157.436 263.543 159.706 194.054 155.166 177.705C150.625 161.357 128.867 106.38 128.867 106.38L124.334 91.8469L100.306 105.469L97.1332 181.356Z" fill="#67647E"/>
<path opacity="0.1" d="M132.273 83.9448C132.273 83.9448 118.447 94.1634 102.577 91.8895C86.7059 89.6155 77.639 160.016 77.639 160.016C77.639 160.016 71.7448 196.349 90.7881 193.171L132.957 179.09C132.957 179.09 123.89 169.549 125.251 157.29L104.84 165.46L105.756 126.408L132.273 83.9448Z" fill="black"/>
<path opacity="0.1" d="M78.5413 159.105C78.5413 159.105 72.6472 195.438 91.6905 192.26L133.859 178.179C133.859 178.179 124.792 168.645 126.153 156.379L105.756 164.556L78.5413 159.105Z" fill="black"/>
<path d="M125.152 161.166C125.152 161.166 139.303 142.53 149.723 151.478C160.144 160.425 128.889 176.823 128.889 176.823L125.152 161.166Z" fill="#FAC3CA"/>
<path d="M132.273 83.0337C132.273 83.0337 118.447 93.2523 102.577 90.9783C86.7059 88.7044 77.639 159.104 77.639 159.104C77.639 159.104 71.7448 195.438 90.7881 192.26L132.957 178.179C132.957 178.179 123.89 168.638 125.251 156.379L104.84 164.556L105.756 125.497L128.882 106.43L132.273 83.0337Z" fill="#67647E"/>
<path opacity="0.1" d="M160.159 77.8081L134.312 71.4524C134.312 71.4524 135.658 72.9778 134.086 78.9451C138.246 83.726 143.357 90.0746 150.182 90.0746C155.066 90.0838 159.821 88.5052 163.733 85.5762C162.273 83.1193 161.075 80.5157 160.159 77.8081Z" fill="black"/>
<path d="M149.729 89.1706C162.252 89.1706 172.403 79.0026 172.403 66.4596C172.403 53.9166 162.252 43.7485 149.729 43.7485C137.206 43.7485 127.055 53.9166 127.055 66.4596C127.055 79.0026 137.206 89.1706 149.729 89.1706Z" fill="#FAC3CA"/>
<path opacity="0.1" d="M158.325 56.601C163.585 55.7041 169.367 53.3666 171.129 48.3244C172.257 45.0972 171.397 41.425 169.557 38.5508C167.717 35.6766 165.009 33.4662 162.217 31.4889C157.684 28.2969 152.685 25.5569 147.228 24.5965C146.287 24.3712 145.306 24.3712 144.366 24.5965C143.547 24.9319 142.769 25.3583 142.046 25.8676C138.316 28.0215 133.677 27.0893 129.355 26.8633C125.033 26.6374 119.851 27.8591 118.49 31.9479C118.067 33.212 118.096 34.5749 117.785 35.8743C117.08 39.0522 114.69 41.5238 112.85 44.1721C111.01 46.8203 109.593 50.4007 111.144 53.2537C111.673 54.2211 112.554 55.1109 112.554 56.2126C112.418 56.9956 112.181 57.7576 111.849 58.4795C111.207 60.824 113.076 63.1897 115.233 64.3055C117.39 65.4213 119.872 65.7673 122.072 66.8054C124.131 67.8231 125.855 69.4116 127.038 71.3821C128.222 73.3526 128.816 75.6222 128.749 77.9208C130.751 78.1539 133.085 78.2739 134.438 76.7768C135.045 76.1059 135.341 75.2091 135.891 74.4958C136.596 73.5637 137.696 73.0128 138.598 72.2643C143.343 68.359 139.973 62.9638 142.659 58.7549C144.069 56.5869 146.311 57.2507 148.582 57.286C151.844 57.3624 155.106 57.1331 158.325 56.601Z" fill="black"/>
<path d="M157.872 56.1491C163.132 55.2522 168.913 52.9147 170.676 47.8725C171.804 44.6453 170.944 40.9731 169.104 38.0989C167.264 35.2247 164.556 33.0143 161.764 31.037C157.231 27.845 152.232 25.105 146.775 24.1446C145.834 23.9193 144.853 23.9193 143.912 24.1446C143.094 24.48 142.316 24.9064 141.593 25.4157C137.863 27.5696 133.224 26.6374 128.902 26.4114C124.58 26.1855 119.398 27.4072 118.037 31.496C117.614 32.7601 117.642 34.123 117.332 35.4224C116.627 38.6003 114.237 41.0719 112.397 43.7202C110.557 46.3684 109.14 49.9488 110.691 52.8018C111.219 53.7692 112.101 54.659 112.101 55.7607C111.965 56.5437 111.728 57.3057 111.396 58.0276C110.754 60.3721 112.622 62.7378 114.78 63.8536C116.937 64.9694 119.419 65.3154 121.619 66.3535C123.686 67.3701 125.417 68.9618 126.605 70.9381C127.793 72.9143 128.387 75.1915 128.317 77.4972C130.319 77.7302 132.653 77.8503 134.007 76.3532C134.613 75.6823 134.909 74.7854 135.459 74.0722C136.164 73.14 137.264 72.5892 138.166 71.8406C142.911 67.9354 139.541 62.5401 142.227 58.3312C143.637 56.1632 145.88 56.827 148.15 56.8623C151.406 56.9281 154.661 56.6894 157.872 56.1491Z" fill="#4A4347"/>
<path opacity="0.1" d="M185.32 132.538C185.32 132.538 190.305 158.426 188.042 168.419C186.659 174.232 186.864 180.311 188.634 186.017" fill="black"/>
<path opacity="0.1" d="M104.74 143.434C104.74 143.434 102.569 160.693 106.186 164.323L104.74 143.434Z" fill="black"/>
<path d="M231.347 356.131C231.627 356.131 231.896 356.02 232.094 355.821C232.293 355.622 232.404 355.353 232.404 355.072C232.404 354.791 232.293 354.522 232.094 354.323C231.896 354.124 231.627 354.013 231.347 354.013C231.066 354.013 230.797 354.124 230.599 354.323C230.4 354.522 230.289 354.791 230.289 355.072C230.289 355.353 230.4 355.622 230.599 355.821C230.797 356.02 231.066 356.131 231.347 356.131Z" fill="black"/>
<g opacity="0.5">
<path opacity="0.5" d="M556.986 232.725V232.139L364.621 83.9802C364.5 83.8901 364.353 83.8416 364.202 83.8416C364.051 83.8416 363.904 83.8901 363.782 83.9802L171.41 232.139V461.792H171.777V462.159H557.36V232.506L556.986 232.725Z" fill="url(#paint1_linear)"/>
</g>
<path d="M550.347 455.386H178.082V233.643L364.214 90.2864L550.347 233.643V455.386Z" fill="white"/>
<path d="M536.949 442.244H191.477V236.46L364.213 103.421L536.949 236.46V442.244Z" fill="#E0E0E0"/>
<path d="M422.816 100.347L212.078 155.683L282.343 424.144L493.082 368.807L422.816 100.347Z" fill="#2091F9"/>
<path d="M474.199 141.132H256.34V418.665H474.199V141.132Z" fill="#F5F5F5"/>
<path opacity="0.05" d="M179.844 233.996L365.976 344.868L179.844 455.739V233.996Z" fill="black"/>
<path d="M178.434 233.996L364.566 344.868L178.434 455.739V233.996Z" fill="white"/>
<path opacity="0.05" d="M549.289 233.996L363.156 344.868L549.289 455.739V233.996Z" fill="black"/>
<path d="M550.699 233.996L364.566 344.868L550.699 455.739V233.996Z" fill="white"/>
<path opacity="0.05" d="M178.434 452.208L364.566 306.733L550.698 452.208H178.434Z" fill="black"/>
<path d="M178.434 455.739L364.566 310.264L550.698 455.739H178.434Z" fill="white"/>
<path d="M216.258 472.582C216.258 472.582 206.909 440.804 218.014 417.4C222.732 407.618 224.154 396.566 222.068 385.904C221.038 380.852 219.549 375.904 217.619 371.124" stroke="#535461" stroke-width="2" stroke-miterlimit="10"/>
<path d="M224.523 356.336C224.523 360.234 217.472 371.526 217.472 371.526C217.472 371.526 210.422 360.227 210.422 356.336C210.422 354.463 211.165 352.667 212.487 351.343C213.809 350.018 215.602 349.274 217.472 349.274C219.342 349.274 221.136 350.018 222.458 351.343C223.78 352.667 224.523 354.463 224.523 356.336Z" fill="#6C63FF"/>
<path d="M236.192 377.917C234.077 381.187 222.035 386.837 222.035 386.837C222.035 386.837 222.254 373.518 224.369 370.248C225.423 368.769 227.006 367.755 228.789 367.415C230.571 367.075 232.416 367.437 233.939 368.425C235.462 369.413 236.546 370.951 236.965 372.719C237.385 374.487 237.108 376.349 236.192 377.917Z" fill="#6C63FF"/>
<path d="M235.654 414.787C232.178 416.539 218.938 415.331 218.938 415.331C218.938 415.331 225.84 403.947 229.309 402.196C230.139 401.731 231.055 401.439 232 401.337C232.946 401.236 233.903 401.327 234.813 401.606C235.722 401.884 236.567 402.345 237.294 402.958C238.022 403.572 238.617 404.328 239.046 405.178C239.474 406.029 239.727 406.958 239.787 407.909C239.848 408.86 239.716 409.813 239.399 410.711C239.082 411.61 238.587 412.435 237.943 413.136C237.3 413.838 236.521 414.402 235.654 414.795V414.787Z" fill="#6C63FF"/>
<path d="M228.999 442.604C225.868 444.921 212.613 445.966 212.613 445.966C212.613 445.966 217.492 433.579 220.623 431.263C222.129 430.256 223.964 429.869 225.748 430.181C227.531 430.492 229.127 431.48 230.204 432.938C231.281 434.396 231.756 436.213 231.532 438.012C231.307 439.812 230.4 441.456 228.999 442.604Z" fill="#6C63FF"/>
<path d="M207.222 387.585C210.042 390.297 223.008 393.114 223.008 393.114C223.008 393.114 219.828 380.184 217.036 377.472C215.678 376.27 213.91 375.638 212.099 375.707C210.288 375.776 208.573 376.541 207.31 377.843C206.047 379.145 205.333 380.885 205.317 382.7C205.3 384.515 205.983 386.267 207.222 387.592V387.585Z" fill="#6C63FF"/>
<path d="M199.846 420.218C203.322 421.969 216.563 420.762 216.563 420.762C216.563 420.762 209.661 409.378 206.192 407.627C204.535 406.877 202.654 406.797 200.94 407.404C199.226 408.01 197.813 409.256 196.994 410.881C196.175 412.507 196.015 414.386 196.546 416.127C197.078 417.868 198.26 419.336 199.846 420.225V420.218Z" fill="#6C63FF"/>
<path d="M197.024 452.915C200.155 455.231 213.41 456.276 213.41 456.276C213.41 456.276 208.531 443.89 205.4 441.573C204.661 440.968 203.807 440.519 202.89 440.254C201.972 439.99 201.011 439.914 200.064 440.033C199.116 440.151 198.203 440.461 197.379 440.944C196.554 441.426 195.837 442.072 195.269 442.84C194.701 443.609 194.295 444.485 194.076 445.416C193.856 446.347 193.828 447.312 193.992 448.254C194.156 449.196 194.509 450.095 195.031 450.896C195.552 451.697 196.23 452.384 197.024 452.915Z" fill="#6C63FF"/>
<path opacity="0.5" d="M356.457 153.844H269.031V160.905H356.457V153.844Z" fill="#6C63FF"/>
<path opacity="0.5" d="M457.984 182.091H269.031V189.153H457.984V182.091Z" fill="#6C63FF"/>
<path opacity="0.5" d="M457.984 200.452H269.031V207.514H457.984V200.452Z" fill="#6C63FF"/>
<path opacity="0.4" d="M457.984 218.813H269.031V225.875H457.984V218.813Z" fill="#6C63FF"/>
<path opacity="0.4" d="M457.984 237.174H269.031V244.236H457.984V237.174Z" fill="#6C63FF"/>
<path opacity="0.3" d="M376.903 255.535H269.031V262.597H376.903V255.535Z" fill="#6C63FF"/>
<path opacity="0.3" d="M416.386 273.896H269.031V280.957H416.386V273.896Z" fill="#6C63FF"/>
</g>
<defs>
<linearGradient id="paint0_linear" x1="73.9461" y1="250.118" x2="224.84" y2="250.118" gradientUnits="userSpaceOnUse">
<stop stop-color="#808080" stop-opacity="0.25"/>
<stop offset="0.54" stop-color="#808080" stop-opacity="0.12"/>
<stop offset="1" stop-color="#808080" stop-opacity="0.1"/>
</linearGradient>
<linearGradient id="paint1_linear" x1="245956" y1="280247" x2="245956" y2="77563.2" gradientUnits="userSpaceOnUse">
<stop stop-color="#808080" stop-opacity="0.25"/>
<stop offset="0.54" stop-color="#808080" stop-opacity="0.12"/>
<stop offset="1" stop-color="#808080" stop-opacity="0.1"/>
</linearGradient>
<clipPath id="clip0">
<rect width="677" height="514" fill="white"/>
</clipPath>
</defs>
</svg>
